<svg width="18" height="18" viewBox="0 0 18 18" fill="none" xmlns="http://www.w3.org/2000/svg">
<path d="M11.534 7.94511C12.2033 7.48281 12.6725 6.72381 12.6725 6.02001C12.6725 4.46061 11.465 3.26001 9.91254 3.26001H5.60004V12.92H10.4576C11.8997 12.92 13.0175 11.747 13.0175 10.3049C13.0175 9.25611 12.4241 8.35911 11.534 7.94511ZM7.67004 4.98501H9.74004C10.3127 4.98501 10.775 5.44731 10.775 6.02001C10.775 6.59271 10.3127 7.05501 9.74004 7.05501H7.67004V4.98501ZM10.085 11.195H7.67004V9.12501H10.085C10.6577 9.12501 11.12 9.58731 11.12 10.16C11.12 10.7327 10.6577 11.195 10.085 11.195Z" fill="#AFAFAF"/>
</svg>
