<svg width="25" height="25" viewBox="0 0 25 25" fill="none" xmlns="http://www.w3.org/2000/svg">
<path d="M19.425 9.59998H15.675V11.1H19.425C19.624 11.1 19.8147 11.179 19.9554 11.3196C20.096 11.4603 20.175 11.6511 20.175 11.85V13.35H17.175C16.5785 13.3506 16.0065 13.5878 15.5847 14.0096C15.1629 14.4315 14.9256 15.0034 14.925 15.6V16.35C14.9256 16.9465 15.1629 17.5185 15.5847 17.9403C16.0065 18.3621 16.5785 18.5994 17.175 18.6H21.675V11.85C21.6745 11.2534 21.4372 10.6815 21.0154 10.2596C20.5936 9.83782 20.0216 9.60057 19.425 9.59998ZM17.175 17.1C16.9761 17.1 16.7854 17.021 16.6447 16.8803C16.5041 16.7397 16.425 16.5489 16.425 16.35V15.6C16.425 15.4011 16.5041 15.2103 16.6447 15.0696C16.7854 14.929 16.9761 14.85 17.175 14.85H20.175V17.1H17.175ZM12.675 18.6H14.175L9.67505 5.84998H8.17505L3.67505 18.6H5.17505L6.44555 14.85H11.4053L12.675 18.6ZM6.9533 13.35L8.82605 7.82173H9.02555L10.8975 13.35H6.9533Z" fill="white"/>
</svg>
