<svg width="17" height="18" viewBox="0 0 17 18" fill="none" xmlns="http://www.w3.org/2000/svg">
<path d="M3.17004 14.99C2.97454 14.99 2.81055 14.9237 2.67807 14.7912C2.54559 14.6588 2.47958 14.495 2.48004 14.3C2.48004 14.1045 2.54628 13.9405 2.67876 13.808C2.81124 13.6755 2.975 13.6095 3.17004 13.61H14.2101C14.4056 13.61 14.5695 13.6762 14.702 13.8087C14.8345 13.9412 14.9005 14.1049 14.9001 14.3C14.9001 14.4955 14.8338 14.6594 14.7013 14.7919C14.5689 14.9244 14.4051 14.9904 14.2101 14.99H3.17004ZM3.17004 12.23C2.97454 12.23 2.81055 12.1637 2.67807 12.0312C2.54559 11.8988 2.47958 11.735 2.48004 11.54C2.48004 11.3445 2.54628 11.1805 2.67876 11.048C2.81124 10.9155 2.975 10.8495 3.17004 10.85H14.2101C14.4056 10.85 14.5695 10.9162 14.702 11.0487C14.8345 11.1812 14.9005 11.3449 14.9001 11.54C14.9001 11.7355 14.8338 11.8994 14.7013 12.0319C14.5689 12.1644 14.4051 12.2304 14.2101 12.23H3.17004ZM3.17004 9.46995C2.97454 9.46995 2.81055 9.40371 2.67807 9.27123C2.54559 9.13875 2.47958 8.97499 2.48004 8.77995C2.48004 8.58445 2.54628 8.42046 2.67876 8.28798C2.81124 8.1555 2.975 8.08949 3.17004 8.08995H14.2101C14.4056 8.08995 14.5695 8.15619 14.702 8.28867C14.8345 8.42115 14.9005 8.58491 14.9001 8.77995C14.9001 8.97545 14.8338 9.13944 14.7013 9.27192C14.5689 9.4044 14.4051 9.47041 14.2101 9.46995H3.17004ZM3.17004 6.70995C2.97454 6.70995 2.81055 6.64371 2.67807 6.51123C2.54559 6.37875 2.47958 6.21499 2.48004 6.01995C2.48004 5.82445 2.54628 5.66046 2.67876 5.52798C2.81124 5.3955 2.975 5.32949 3.17004 5.32995H14.2101C14.4056 5.32995 14.5695 5.39619 14.702 5.52867C14.8345 5.66115 14.9005 5.82491 14.9001 6.01995C14.9001 6.21545 14.8338 6.37944 14.7013 6.51192C14.5689 6.6444 14.4051 6.71041 14.2101 6.70995H3.17004ZM3.17004 3.94995C2.97454 3.94995 2.81055 3.88371 2.67807 3.75123C2.54559 3.61875 2.47958 3.45499 2.48004 3.25995C2.48004 3.06445 2.54628 2.90046 2.67876 2.76798C2.81124 2.6355 2.975 2.56949 3.17004 2.56995H14.2101C14.4056 2.56995 14.5695 2.63619 14.702 2.76867C14.8345 2.90115 14.9005 3.06491 14.9001 3.25995C14.9001 3.45545 14.8338 3.61944 14.7013 3.75192C14.5689 3.8844 14.4051 3.95041 14.2101 3.94995H3.17004Z" fill="#AFAFAF"/>
</svg>
