<svg width="25" height="25" viewBox="0 0 25 25" fill="none" xmlns="http://www.w3.org/2000/svg">
<path d="M14.425 17.6H20.425M17.425 14.6V20.6M4.42505 5.59998C4.42505 5.33476 4.53041 5.08041 4.71794 4.89287C4.90548 4.70533 5.15983 4.59998 5.42505 4.59998H9.42505C9.69027 4.59998 9.94462 4.70533 10.1322 4.89287C10.3197 5.08041 10.425 5.33476 10.425 5.59998V9.59998C10.425 9.86519 10.3197 10.1195 10.1322 10.3071C9.94462 10.4946 9.69027 10.6 9.42505 10.6H5.42505C5.15983 10.6 4.90548 10.4946 4.71794 10.3071C4.53041 10.1195 4.42505 9.86519 4.42505 9.59998V5.59998ZM14.425 5.59998C14.425 5.33476 14.5304 5.08041 14.7179 4.89287C14.9055 4.70533 15.1598 4.59998 15.425 4.59998H19.425C19.6903 4.59998 19.9446 4.70533 20.1322 4.89287C20.3197 5.08041 20.425 5.33476 20.425 5.59998V9.59998C20.425 9.86519 20.3197 10.1195 20.1322 10.3071C19.9446 10.4946 19.6903 10.6 19.425 10.6H15.425C15.1598 10.6 14.9055 10.4946 14.7179 10.3071C14.5304 10.1195 14.425 9.86519 14.425 9.59998V5.59998ZM4.42505 15.6C4.42505 15.3348 4.53041 15.0804 4.71794 14.8929C4.90548 14.7053 5.15983 14.6 5.42505 14.6H9.42505C9.69027 14.6 9.94462 14.7053 10.1322 14.8929C10.3197 15.0804 10.425 15.3348 10.425 15.6V19.6C10.425 19.8652 10.3197 20.1195 10.1322 20.3071C9.94462 20.4946 9.69027 20.6 9.42505 20.6H5.42505C5.15983 20.6 4.90548 20.4946 4.71794 20.3071C4.53041 20.1195 4.42505 19.8652 4.42505 19.6V15.6Z" stroke="white" stroke-width="2" stroke-linecap="round" stroke-linejoin="round"/>
</svg>
