<svg width="48" height="48" viewBox="0 0 48 48" fill="none" xmlns="http://www.w3.org/2000/svg">
<path d="M26 18H37L26 7V18ZM12 4H28L40 16V40C40 41.0609 39.5786 42.0783 38.8284 42.8284C38.0783 43.5786 37.0609 44 36 44H12C10.9391 44 9.92172 43.5786 9.17157 42.8284C8.42143 42.0783 8 41.0609 8 40V8C8 5.78 9.78 4 12 4ZM28 40V38C28 35.34 22.66 34 20 34C17.34 34 12 35.34 12 38V40H28ZM20 24C18.9391 24 17.9217 24.4214 17.1716 25.1716C16.4214 25.9217 16 26.9391 16 28C16 29.0609 16.4214 30.0783 17.1716 30.8284C17.9217 31.5786 18.9391 32 20 32C21.0609 32 22.0783 31.5786 22.8284 30.8284C23.5786 30.0783 24 29.0609 24 28C24 26.9391 23.5786 25.9217 22.8284 25.1716C22.0783 24.4214 21.0609 24 20 24Z" fill="white"/>
</svg>
