<svg width="22" height="22" viewBox="0 0 22 22" fill="none" xmlns="http://www.w3.org/2000/svg">
<path d="M12.7442 1.41248C12.8831 1.41248 13.0185 1.45658 13.1307 1.53843C13.243 1.62027 13.3264 1.73564 13.3689 1.86791L14.0908 4.11098C14.394 4.25929 14.684 4.42598 14.961 4.61366L17.2657 4.11754C17.4016 4.08853 17.5432 4.10339 17.6701 4.16C17.797 4.21661 17.9027 4.31204 17.9719 4.43254L19.791 7.58123C19.8604 7.70166 19.8899 7.84104 19.875 7.97927C19.8601 8.1175 19.8018 8.24744 19.7083 8.35035L18.1267 10.096C18.1498 10.4307 18.1498 10.7666 18.1267 11.1014L19.7083 12.8496C19.8018 12.9525 19.8601 13.0825 19.875 13.2207C19.8899 13.3589 19.8604 13.4983 19.791 13.6187L17.9719 16.7687C17.9025 16.889 17.7967 16.9841 17.6698 17.0405C17.543 17.0969 17.4015 17.1115 17.2657 17.0824L14.961 16.5863C14.6854 16.7727 14.394 16.9407 14.0921 17.089L13.3689 19.332C13.3264 19.4643 13.243 19.5797 13.1307 19.6615C13.0185 19.7434 12.8831 19.7875 12.7442 19.7875H9.10591C8.96697 19.7875 8.83162 19.7434 8.71935 19.6615C8.60708 19.5797 8.52368 19.4643 8.48116 19.332L7.7606 17.0903C7.45823 16.9424 7.16658 16.7736 6.88779 16.585L4.58435 17.0824C4.44846 17.1114 4.30687 17.0966 4.17997 17.0399C4.05307 16.9833 3.94742 16.8879 3.87823 16.7674L2.0591 13.6187C1.98964 13.4983 1.96021 13.3589 1.97507 13.2207C1.98994 13.0825 2.04831 12.9525 2.14179 12.8496L3.72335 11.1014C3.70044 10.7675 3.70044 10.4325 3.72335 10.0986L2.14179 8.35035C2.04831 8.24744 1.98994 8.1175 1.97507 7.97927C1.96021 7.84104 1.98964 7.70166 2.0591 7.58123L3.87823 4.43123C3.94761 4.31097 4.05335 4.21581 4.18023 4.15944C4.30711 4.10308 4.4486 4.08841 4.58435 4.11754L6.88779 4.61498C7.16604 4.42729 7.45741 4.25798 7.7606 4.10966L8.48248 1.86791C8.52485 1.73607 8.60785 1.621 8.7196 1.5392C8.83135 1.45739 8.96611 1.41303 9.1046 1.41248H12.7429H12.7442ZM12.2638 2.72498H9.58629L8.84079 5.04416L8.3381 5.2896C8.09098 5.41053 7.85242 5.54823 7.6241 5.70173L7.15948 6.01673L4.77598 5.50223L3.43723 7.82273L5.07129 9.63135L5.03191 10.1879C5.01305 10.4623 5.01305 10.7377 5.03191 11.0121L5.07129 11.5686L3.4346 13.3772L4.77466 15.6977L7.15816 15.1845L7.62279 15.4982C7.85111 15.6517 8.08967 15.7894 8.33679 15.9103L8.83948 16.1558L9.58629 18.475H12.2664L13.0145 16.1545L13.5159 15.9103C13.7628 15.7897 14.0009 15.652 14.2286 15.4982L14.6919 15.1845L17.0767 15.6977L18.4155 13.3772L16.7801 11.5686L16.8195 11.0121C16.8384 10.7372 16.8384 10.4614 16.8195 10.1865L16.7801 9.63004L18.4168 7.82273L17.0767 5.50223L14.6919 6.0141L14.2286 5.70173C14.0009 5.54792 13.7628 5.41021 13.5159 5.2896L13.0145 5.04548L12.2651 2.72498H12.2638ZM10.925 6.66248C11.9693 6.66248 12.9708 7.07732 13.7093 7.81574C14.4477 8.55417 14.8625 9.55569 14.8625 10.6C14.8625 11.6443 14.4477 12.6458 13.7093 13.3842C12.9708 14.1226 11.9693 14.5375 10.925 14.5375C9.88075 14.5375 8.87923 14.1226 8.14081 13.3842C7.40238 12.6458 6.98754 11.6443 6.98754 10.6C6.98754 9.55569 7.40238 8.55417 8.14081 7.81574C8.87923 7.07732 9.88075 6.66248 10.925 6.66248ZM10.925 7.97498C10.2288 7.97498 9.56117 8.25154 9.06888 8.74382C8.5766 9.2361 8.30004 9.90378 8.30004 10.6C8.30004 11.2962 8.5766 11.9638 9.06888 12.4561C9.56117 12.9484 10.2288 13.225 10.925 13.225C11.6212 13.225 12.2889 12.9484 12.7812 12.4561C13.2735 11.9638 13.55 11.2962 13.55 10.6C13.55 9.90378 13.2735 9.2361 12.7812 8.74382C12.2889 8.25154 11.6212 7.97498 10.925 7.97498Z" fill="white"/>
</svg>
