<svg width="20" height="19" viewBox="0 0 20 19" fill="none" xmlns="http://www.w3.org/2000/svg">
<g clip-path="url(#clip0_129_101)">
<path d="M0.880138 0.365613C0.783953 0.447718 0.716913 0.558737 0.689033 0.682088C0.661152 0.805438 0.673928 0.934498 0.725451 1.04999C2.51842 5.06952 6.28365 10.6242 9.0399 13.5187C9.81245 14.3285 10.7652 14.9444 11.8208 15.3164C11.8419 15.5824 11.8911 15.9469 12.0083 16.3336C12.2438 17.1058 12.7899 18.0668 14.0098 18.3726C15.1913 18.654 16.4157 18.7065 17.6169 18.5273C17.8402 18.492 18.0604 18.4391 18.2755 18.3691C18.4744 18.3086 18.6598 18.2103 18.8215 18.0797C18.9282 17.989 19.0104 17.8729 19.0606 17.7422C19.1228 17.5744 19.1211 17.3896 19.0559 17.223C18.9446 16.9359 18.6856 16.7777 18.5157 16.6933C18.054 16.4625 17.7833 16.1625 17.4997 15.7254C17.3883 15.5566 17.284 15.3773 17.1633 15.1723L17.0262 14.9402C16.8493 14.6414 16.6442 14.3074 16.3864 13.9465C15.7676 13.0805 14.979 12.8625 14.3403 12.8965C14.1926 12.9047 14.0555 12.9258 13.9325 12.9527C13.8598 12.7512 13.7661 12.5074 13.6536 12.2402C13.3477 11.5148 12.8825 10.5773 12.2626 9.81561C9.71256 6.68671 5.02037 2.54296 1.57858 0.318738C1.47262 0.250347 1.34742 0.217968 1.22159 0.226413C1.09576 0.234858 0.976008 0.283677 0.880138 0.365613ZM13.9114 14.1844C14.0669 14.1167 14.2331 14.077 14.4024 14.0672C14.6907 14.0519 15.0739 14.1258 15.4325 14.6285C15.6633 14.9508 15.8485 15.2519 16.0184 15.539L16.1415 15.7465C16.2657 15.9586 16.3911 16.1707 16.5165 16.3652C16.7538 16.7498 17.055 17.091 17.4071 17.3742C16.5985 17.5055 15.3727 17.5043 14.2934 17.2336C13.6383 17.0707 13.3055 16.5668 13.1297 15.9914C13.0449 15.7055 12.9953 15.4104 12.9821 15.1125L13.9114 14.1844ZM12.2239 14.2148C12.0833 14.168 11.8993 14.0976 11.6872 14.0004C11.0121 13.6872 10.4019 13.2499 9.88834 12.7113C7.66178 10.3723 4.71803 6.18397 2.79615 2.59686C5.83131 4.85507 9.31881 8.0578 11.3532 10.5562C11.8712 11.1926 12.2848 12.0129 12.5743 12.6961C12.7161 13.0336 12.8251 13.3289 12.8965 13.5398L12.2239 14.2148ZM18.0516 17.7773L18.0434 17.7715C18.0459 17.7734 18.0487 17.7761 18.0516 17.7773Z" fill="white"/>
</g>
<defs>
<clipPath id="clip0_129_101">
<rect width="18.75" height="18.75" fill="white" transform="matrix(-1 0 0 1 19.425 0.224976)"/>
</clipPath>
</defs>
</svg>
