<svg width="18" height="18" viewBox="0 0 18 18" fill="none" xmlns="http://www.w3.org/2000/svg">
<path d="M3.94012 14.99H13.6001V13.61H3.94012V14.99ZM8.77013 12.23C9.86812 12.23 10.9212 11.7938 11.6976 11.0174C12.474 10.241 12.9101 9.18795 12.9101 8.08995V2.56995H11.1851V8.08995C11.1851 8.73045 10.9307 9.34471 10.4778 9.79761C10.0249 10.2505 9.41063 10.505 8.77013 10.505C8.12963 10.505 7.51536 10.2505 7.06246 9.79761C6.60956 9.34471 6.35513 8.73045 6.35513 8.08995V2.56995H4.63012V8.08995C4.63012 9.18795 5.0663 10.241 5.8427 11.0174C6.6191 11.7938 7.67213 12.23 8.77013 12.23Z" fill="#AFAFAF"/>
</svg>
