<svg width="25" height="24" viewBox="0 0 25 24" fill="none" xmlns="http://www.w3.org/2000/svg">
<path d="M12.5 2C8.63 2 5.5 5.13 5.5 9C5.5 14.25 12.5 22 12.5 22C12.5 22 19.5 14.25 19.5 9C19.5 5.13 16.37 2 12.5 2ZM12.5 11.5C11.837 11.5 11.2011 11.2366 10.7322 10.7678C10.2634 10.2989 10 9.66304 10 9C10 8.33696 10.2634 7.70107 10.7322 7.23223C11.2011 6.76339 11.837 6.5 12.5 6.5C13.163 6.5 13.7989 6.76339 14.2678 7.23223C14.7366 7.70107 15 8.33696 15 9C15 9.66304 14.7366 10.2989 14.2678 10.7678C13.7989 11.2366 13.163 11.5 12.5 11.5Z" fill="#313C4E"/>
</svg>
