<svg width="25" height="24" viewBox="0 0 25 24" fill="none" xmlns="http://www.w3.org/2000/svg">
<path d="M7.5 23C6.95 23 6.479 22.804 6.087 22.412C5.695 22.02 5.49934 21.5493 5.5 21V3C5.5 2.45 5.696 1.979 6.088 1.587C6.48 1.195 6.95067 0.999335 7.5 1H17.5C18.05 1 18.521 1.196 18.913 1.588C19.305 1.98 19.5007 2.45067 19.5 3V21C19.5 21.55 19.304 22.021 18.912 22.413C18.52 22.805 18.0493 23.0007 17.5 23H7.5ZM12.5 20.5C12.7833 20.5 13.021 20.404 13.213 20.212C13.405 20.02 13.5007 19.7827 13.5 19.5C13.5 19.2167 13.404 18.979 13.212 18.787C13.02 18.595 12.7827 18.4993 12.5 18.5C12.2167 18.5 11.979 18.596 11.787 18.788C11.595 18.98 11.4993 19.2173 11.5 19.5C11.5 19.7833 11.596 20.021 11.788 20.213C11.98 20.405 12.2173 20.5007 12.5 20.5ZM7.5 16H17.5V6H7.5V16Z" fill="#313C4E"/>
</svg>
