<svg width="24" height="24" viewBox="0 0 24 24" fill="none" xmlns="http://www.w3.org/2000/svg">
<path d="M4.9002 15.6V13.3H5.9002V19.1H4.9002V16.8V16.7H4.8002H2.4002H2.3002V16.8V19.1H1.3002V13.3H2.3002V15.6V15.7H2.4002H4.8002H4.9002V15.6ZM9.5002 14.4V19.1H8.5002V14.4V14.3H8.4002H6.8202V13.3H11.0602V14.3H9.6002H9.5002V14.4ZM16.8654 13.3H17.9002V19.1H16.9002V15.48V15.38H16.8002H16.6802H16.6149L16.5887 15.4397L15.2949 18.38H14.7054L13.4117 15.4397L13.3854 15.38H13.3202H13.2002H13.1002V15.48V19.1H12.1002V13.3H13.1332L14.7877 17.3181L14.8132 17.38H14.8802H15.0002H15.0654L15.0917 17.3203L16.8654 13.3ZM20.4002 18.1H22.7002V19.1H19.3002V13.3H20.3002V18V18.1H20.4002ZM11.1585 10.5797L10.5328 11.8312L6.50162 7.79998L10.5328 3.76879L11.1585 5.02023L8.44949 7.72927L8.37878 7.79998L8.44949 7.87069L11.1585 10.5797ZM12.8419 5.02023L13.4676 3.76879L17.4988 7.79998L13.4676 11.8312L12.8419 10.5797L15.5509 7.87069L15.6216 7.79998L15.5509 7.72927L12.8419 5.02023Z" fill="#989DA6" stroke="#313B47" stroke-width="0.2"/>
</svg>
