<svg width="24" height="24" viewBox="0 0 24 24" fill="none" xmlns="http://www.w3.org/2000/svg">
<path d="M18.004 13.0848L19.3007 15.5961L19.3361 15.6646L19.4124 15.6757L22.1622 16.0752L20.1496 17.8886L20.0867 17.9452L20.1027 18.0284L20.6176 20.6996L18.0769 19.1837L18 19.1378L17.9231 19.1837L15.3824 20.6996L15.8973 18.0284L15.9133 17.9452L15.8504 17.8886L13.839 16.0763L16.671 15.6758L16.75 15.6646L16.7849 15.5928L18.004 13.0848ZM4.65 12.15H8.85V13.35H4.65V12.15ZM4.65 9.15H11.85V10.35H4.65V9.15ZM4.65 6.15H11.85V7.35H4.65V6.15Z" fill="#989DA6" stroke="#313B47" stroke-width="0.3"/>
<path d="M2.85 19.5V19.65H3H11.85V20.85H3C2.64196 20.85 2.29858 20.7078 2.04541 20.4546C1.79223 20.2014 1.65 19.858 1.65 19.5V4.5C1.65 4.14196 1.79223 3.79858 2.04541 3.54541C2.29858 3.29223 2.64196 3.15 3 3.15H21C21.358 3.15 21.7014 3.29223 21.9546 3.54541C22.2078 3.79858 22.35 4.14196 22.35 4.5V11.85H21.15V4.5V4.35H21H3H2.85V4.5V19.5Z" fill="#989DA6" stroke="#313B47" stroke-width="0.3"/>
</svg>
