<svg width="24" height="24" viewBox="0 0 24 24" fill="none" xmlns="http://www.w3.org/2000/svg">
<path d="M16 5.95949L14.6935 4.39169C14.6932 4.39137 14.693 4.39105 14.6927 4.39073L16 5.95949ZM16 5.95949L17.3065 4.39177C17.3067 4.39147 17.3069 4.39117 17.3072 4.39087C17.4804 4.17926 17.6905 4.01753 17.9361 3.90925L18.0357 4.13513L17.9362 3.90925C18.1773 3.80291 18.4328 3.75 18.7 3.75H18.7004C19.1405 3.75077 19.519 3.89226 19.8135 4.18598C20.1084 4.48004 20.2499 4.85889 20.25 5.2997C20.25 5.29979 20.25 5.2999 20.25 5.3H20L16 5.95949ZM15.5525 12.2739L15.5527 12.2737L15.543 12.2648C14.115 10.9697 12.8672 9.72169 11.7988 8.52083C10.743 7.33412 10.2494 6.26239 10.25 5.30016V5.3C10.25 4.42986 10.5425 3.71107 11.1268 3.12678C11.7111 2.54248 12.4299 2.25 13.3 2.25C13.7968 2.25 14.2595 2.35465 14.6913 2.56313C15.1282 2.77408 15.5008 3.05758 15.8115 3.41421L16.0002 3.63081L16.1887 3.41404C16.4992 3.05686 16.8718 2.77348 17.3085 2.56326C17.7403 2.35534 18.2032 2.25064 18.7002 2.25C19.5702 2.25004 20.289 2.54252 20.8732 3.12678C21.4575 3.71107 21.75 4.42986 21.75 5.3C21.75 6.26301 21.256 7.33514 20.2002 8.52183C19.1318 9.72269 17.8843 10.9704 16.4571 12.2648L16.4569 12.2646L16.4482 12.2732C16.3927 12.3288 16.3318 12.3651 16.2637 12.386C16.1793 12.4119 16.0917 12.425 16 12.425C15.9075 12.425 15.8196 12.4118 15.7353 12.386L15.662 12.625L15.7353 12.386C15.6673 12.3651 15.6071 12.329 15.5525 12.2739ZM15.8279 10.4813L16 10.6447L13.3 4C12.9167 4 12.604 4.121 12.362 4.363C12.12 4.605 11.9993 4.91733 12 5.3H11.75C11.75 5.30015 11.75 5.30029 11.75 5.30044C11.7501 5.63623 11.8774 6.00204 12.0986 6.38967C12.3214 6.77997 12.65 7.21077 13.0781 7.68125C13.9245 8.61145 14.8412 9.5448 15.8279 10.4813ZM13.8841 20.6412L13.9545 20.6604L19 18V17.75H18.9995C18.9994 17.75 18.9993 17.75 18.9992 17.75L13.95 17.75C13.5045 17.75 13.1578 17.7334 12.906 17.7019C12.6591 17.6711 12.4016 17.609 12.1332 17.5143L12.1332 17.5142L12.1291 17.5128L10.7041 17.0378L10.7041 17.0378L10.6996 17.0364C10.499 16.9737 10.3631 16.8547 10.2765 16.6693C10.1866 16.4766 10.1736 16.2826 10.2386 16.0746C10.3026 15.8698 10.4219 15.7278 10.603 15.634C10.7842 15.5402 10.9691 15.5239 11.1729 15.5878L12.2209 15.9372L12.2209 15.9373L12.2295 15.9398C12.5269 16.0273 12.8602 16.0963 13.2285 16.1476C13.6005 16.1995 14.0984 16.2331 14.7182 16.2499L14.7182 16.25H14.725H15H15.25V16C15.25 15.7644 15.1798 15.5427 15.0478 15.339C14.9177 15.1382 14.7479 14.9867 14.5328 14.9141L8.68624 12.7653L8.64449 12.75H8.6H7H6.75V13V18.5V18.6908L6.93408 18.7412L13.8841 20.6412ZM21.528 19.6937C21.3756 19.8594 21.1243 20.0119 20.7483 20.137L14.5005 22.0863L14.5005 22.0861L14.4896 22.0901C14.3343 22.1465 14.1716 22.175 14 22.175C13.8214 22.175 13.6523 22.1528 13.4918 22.1091C13.4914 22.109 13.4911 22.1089 13.4908 22.1088L7.06745 20.3093L6.83274 20.2435L6.76106 20.4765C6.64523 20.8529 6.41875 21.157 6.07139 21.3933C5.71487 21.6358 5.35907 21.75 5 21.75H3C2.5169 21.75 2.10931 21.5808 1.76378 21.2352C1.41825 20.8897 1.24942 20.4825 1.25 20.0003V20V13C1.25 12.5169 1.41924 12.1093 1.76478 11.7638C2.1103 11.4183 2.51746 11.2494 2.9997 11.25H3H8.6C8.69842 11.25 8.79731 11.2607 8.89695 11.2823C9.0046 11.3057 9.10314 11.3321 9.19287 11.3612L15.0632 13.5345L15.0646 13.5349C15.5636 13.7164 15.9681 14.0327 16.2817 14.4911C16.5955 14.9499 16.7506 15.4507 16.75 15.9997L16.7497 16.25H17H19C19.7724 16.25 20.4185 16.5025 20.9535 17.0069C21.4803 17.5036 21.75 18.1596 21.75 19C21.75 19.3229 21.6663 19.5435 21.528 19.6937ZM2.75 20V20.25H3H5H5.25V20V13V12.75H5H3H2.75V13V20Z" fill="#989DA6" stroke="#313B47" stroke-width="0.5"/>
</svg>
