<svg width="24" height="24" viewBox="0 0 24 24" fill="none" xmlns="http://www.w3.org/2000/svg">
<path d="M19.6137 13C19.6547 12.6715 19.6852 12.3385 19.6852 12C19.6852 11.6615 19.6547 11.329 19.6137 11.001L21.7812 9.30449C21.8771 9.22817 21.9423 9.11987 21.9649 8.9994C21.9875 8.87894 21.9659 8.75437 21.9042 8.64849L19.8542 5.09699C19.7262 4.87649 19.4597 4.78399 19.2292 4.87649L16.6767 5.90649C16.1453 5.49668 15.5631 5.15737 14.9447 4.89699L14.5602 2.18049C14.5377 2.06057 14.4743 1.95216 14.3809 1.87374C14.2874 1.79532 14.1696 1.75176 14.0477 1.75049H9.94765C9.69165 1.75049 9.48115 1.93999 9.44015 2.18049L9.05615 4.89699C8.43649 5.15548 7.8539 5.49511 7.32365 5.90699L4.77165 4.87599C4.65829 4.83274 4.53327 4.83112 4.41882 4.8714C4.30437 4.91169 4.20793 4.99127 4.14665 5.09599L2.09665 8.64799C1.96815 8.86799 2.02465 9.14499 2.21915 9.30399L4.38215 11.0005C4.33715 11.3315 4.31315 11.6655 4.31015 12C4.31015 12.338 4.34115 12.671 4.38215 12.999L2.21915 14.6955C2.02415 14.8495 1.96815 15.126 2.09615 15.3515L4.14615 18.903C4.27415 19.1235 4.54115 19.216 4.77115 19.1235L7.32365 18.0935C7.85519 18.5033 8.43753 18.8426 9.05615 19.103L9.44015 21.8195C9.48115 22.06 9.69165 22.2495 9.94765 22.2495H14.0477C14.3042 22.2495 14.5142 22.06 14.5552 21.8195L14.9397 19.103C15.5591 18.8445 16.1416 18.5048 16.6717 18.093L19.2242 19.1235C19.4582 19.213 19.7227 19.1195 19.8492 18.9035L21.8992 15.3515C22.0272 15.1315 21.9712 14.8545 21.7762 14.6955L19.6137 12.999V13Z" stroke="#989DA6" stroke-width="0.5" stroke-linecap="round" stroke-linejoin="round"/>
<path d="M11.9975 16.6319C14.5557 16.6319 16.6295 14.5581 16.6295 11.9999C16.6295 9.44174 14.5557 7.36792 11.9975 7.36792C9.4393 7.36792 7.36548 9.44174 7.36548 11.9999C7.36548 14.5581 9.4393 16.6319 11.9975 16.6319Z" stroke="#989DA6" stroke-width="0.5" stroke-linecap="round" stroke-linejoin="round"/>
<path d="M11.9971 7.36792H21.0671M15.5056 15.0284L9.57909 22.0909M4.38159 11.0009L8.12709 14.5459" stroke="#989DA6" stroke-width="0.5" stroke-linecap="round" stroke-linejoin="round"/>
</svg>
