<svg width="24" height="24" viewBox="0 0 24 24" fill="none" xmlns="http://www.w3.org/2000/svg">
<path d="M8.06176 15.612C8.65376 15.7373 9.28309 15.8333 9.94976 15.9C10.6164 15.9667 11.2998 16 11.9998 16C12.6998 16 13.3748 15.9667 14.0248 15.9C14.6748 15.8333 15.2954 15.7377 15.8868 15.613C16.4781 15.4877 17.0364 15.3333 17.5618 15.15C17.988 15.0012 18.384 14.836 18.7498 14.6543L8.06176 15.612ZM8.06176 15.612C7.47042 15.4873 6.91642 15.3333 6.39976 15.15C5.98406 15.0025 5.60072 14.8388 5.24976 14.6589L8.06176 15.612ZM3.24976 17.0002V17V7C3.24976 6.05866 3.99911 5.17856 5.73948 4.40337C7.45829 3.63779 9.5424 3.25 11.9998 3.25C14.4578 3.25 16.5422 3.63779 18.261 4.40337C20.0014 5.17856 20.7503 6.05861 20.7498 6.99985V7V17C20.7498 17.96 20.0055 18.8439 18.2851 19.6096C16.5836 20.3669 14.4914 20.7507 11.9998 20.75H11.9998C9.50745 20.75 7.41493 20.3659 5.71341 19.6086C3.9929 18.8428 3.24918 17.9594 3.24976 17.0002ZM11.9996 9.275H11.9998C13.5073 9.275 15.0219 9.05882 16.543 8.62752C17.301 8.41257 17.906 8.18686 18.3497 7.94753C18.7836 7.71348 19.1086 7.44256 19.2335 7.11377L19.2672 7.02506L19.2335 6.93634C19.109 6.60804 18.786 6.33581 18.354 6.09943C17.9125 5.85784 17.3105 5.62893 16.5565 5.40992C15.0427 4.97025 13.5235 4.75 11.9998 4.75C10.4594 4.75 8.94814 4.96604 7.46677 5.398C6.72882 5.61318 6.13366 5.84099 5.68865 6.08411C5.25026 6.3236 4.92351 6.59615 4.7732 6.9183L4.72388 7.02401L4.77321 7.12972C4.92398 7.4528 5.25128 7.72479 5.69017 7.96256C6.1356 8.20388 6.73104 8.42856 7.46909 8.63939C8.95004 9.06242 10.4604 9.27432 11.9996 9.275ZM19.1184 12.745L19.2498 12.6742V12.525V9.525V9.10645L18.8812 9.30488C18.4609 9.53122 17.9938 9.73442 17.4794 9.91396C16.9649 10.0935 16.4168 10.2451 15.835 10.3684C15.253 10.4911 14.6411 10.5855 13.9993 10.6513C13.3583 10.717 12.6918 10.75 11.9998 10.75C11.3077 10.75 10.6327 10.717 9.97463 10.6512C9.31606 10.5854 8.69577 10.4907 8.11354 10.3674L8.11333 10.3674C7.53177 10.2448 6.98856 10.0937 6.48336 9.91439C5.9781 9.73511 5.52459 9.53238 5.12191 9.30687L4.74976 9.09847V9.525V12.525V12.6715L4.87761 12.7431C5.30825 12.9843 5.78808 13.1982 6.31615 13.3856C6.84422 13.573 7.40928 13.7302 8.01098 13.8576L8.01119 13.8576C8.61222 13.9843 9.2502 14.0813 9.92488 14.1488C10.6002 14.2163 11.2918 14.25 11.9998 14.25C12.7077 14.25 13.3912 14.2163 14.0503 14.1487C14.7084 14.0812 15.3382 13.9839 15.9395 13.8566C16.5404 13.7299 17.109 13.5732 17.6451 13.386C18.1814 13.1989 18.6727 12.9854 19.1184 12.745ZM17.4794 14.914C16.9649 15.0935 16.417 15.2451 15.8352 15.3684C15.2531 15.4911 14.6412 15.5855 13.9993 15.6513C13.3583 15.717 12.6918 15.75 11.9998 15.75C11.3077 15.75 10.6327 15.717 9.97463 15.6512C9.31606 15.5854 8.69577 15.4907 8.11354 15.3674L8.11333 15.3674C7.53177 15.2448 6.98856 15.0937 6.48336 14.9144C5.9781 14.7351 5.52459 14.5324 5.12191 14.3069L4.74976 14.0985V14.525V17V17.0406L4.76259 17.0791C4.87813 17.4257 5.2173 17.7066 5.67105 17.9461C6.13271 18.1898 6.70387 18.4082 7.38051 18.6032L7.38079 18.6033C8.05984 18.7982 8.80434 18.9544 9.61368 19.0724C10.425 19.1907 11.2204 19.25 11.9998 19.25C12.7791 19.25 13.5703 19.1907 14.3732 19.0723C15.1739 18.9543 15.9143 18.7978 16.5937 18.6023C17.2719 18.4077 17.848 18.185 18.3182 17.9322C18.7781 17.6849 19.1213 17.4 19.2369 17.0542L19.2498 17.0157V16.975V14.525V14.1064L18.8812 14.3049C18.4609 14.5312 17.9938 14.7344 17.4794 14.914Z" fill="#989DA6" stroke="#313B47" stroke-width="0.5"/>
</svg>
