<svg width="24" height="24" viewBox="0 0 24 24" fill="none" xmlns="http://www.w3.org/2000/svg">
<path d="M14.7177 8.65907L14.7412 8.71446L14.8012 8.71963L21.7558 9.31933L16.4842 13.8945L16.4387 13.9339L16.4523 13.9926L18.0289 20.7922L12.0514 17.1844L11.9998 17.1532L11.9481 17.1844L5.97098 20.7919L7.55714 13.9927L7.57085 13.9339L7.52523 13.8944L2.24437 9.31961L9.19821 8.72964L9.2583 8.72455L9.28183 8.66902L11.9998 2.2561L14.7177 8.65907ZM8.14238 17.6473L8.08842 17.8782L8.29144 17.7556L11.9997 15.5168L15.718 17.7656L15.9211 17.8884L15.8671 17.6573L14.8809 13.436L18.1553 10.5955L18.3337 10.4408L18.0984 10.4204L13.7784 10.0456L12.0918 6.06102L11.9996 5.84308L11.9076 6.06113L10.2311 10.0356L5.91111 10.4104L5.67583 10.4308L5.85423 10.5855L9.12865 13.426L8.14238 17.6473Z" fill="#989DA6" stroke="#313B47" stroke-width="0.2"/>
</svg>
