<svg width="24" height="24" viewBox="0 0 24 24" fill="none" xmlns="http://www.w3.org/2000/svg">
<path d="M14.2502 9.49585C14.6877 9.29064 15.1409 9.12426 15.6096 8.99677C16.2153 8.83201 16.8458 8.75 17.5002 8.75M14.2502 9.49585L17.5002 9M14.2502 9.49585V8.36718C14.7364 8.17155 15.2323 8.02255 15.7379 7.92001C16.2957 7.80691 16.883 7.75 17.5002 7.75C17.9207 7.75 18.3325 7.78234 18.7357 7.84686C19.0799 7.90192 19.418 7.96851 19.7502 8.04661M14.2502 9.49585L19.7502 8.04661M17.5002 8.75V9M17.5002 8.75C17.5001 8.75 17.5 8.75 17.4999 8.75L17.5002 9M17.5002 8.75C17.9635 8.74933 18.4078 8.78784 18.8326 8.86614C19.1411 8.92302 19.447 9.0004 19.7502 9.09816M17.5002 9C17.9496 8.99933 18.3786 9.03667 18.7872 9.112C19.111 9.17168 19.432 9.25478 19.7502 9.3613V9.09816M19.7502 9.09816V8.04661M19.7502 9.09816C19.8338 9.12509 19.9171 9.15358 20.0002 9.1836L19.7502 8.04661M14.2502 14.9862C14.6885 14.7716 15.1429 14.6038 15.613 14.4829C16.2176 14.3274 16.8468 14.25 17.4999 14.25C17.5 14.25 17.5001 14.25 17.5002 14.25V14.5C17.9496 14.4993 18.3786 14.5367 18.7872 14.612C19.111 14.6717 19.432 14.7548 19.7502 14.8613L14.2502 14.9862ZM14.2502 14.9862V13.8672C14.7364 13.6715 15.2323 13.5226 15.7379 13.42C16.2957 13.3069 16.883 13.25 17.5002 13.25C17.9207 13.25 18.3325 13.2823 18.7357 13.3469C19.0799 13.4019 19.418 13.4685 19.7502 13.5466V14.5982L14.2502 14.9862ZM14.2502 12.2459C14.6877 12.0406 15.1409 11.8743 15.6096 11.7468C16.2153 11.582 16.8458 11.5 17.5002 11.5M14.2502 12.2459L17.5002 11.75M14.2502 12.2459V11.1172C14.7364 10.9215 15.2323 10.7726 15.7379 10.67C16.2957 10.5569 16.883 10.5 17.5002 10.5C17.9207 10.5 18.3325 10.5323 18.7357 10.5969C19.0799 10.6519 19.418 10.7185 19.7502 10.7966M14.2502 12.2459L19.7502 10.7966M17.5002 11.5V11.75M17.5002 11.5C17.5001 11.5 17.5 11.5 17.4999 11.5L17.5002 11.75M17.5002 11.5C17.9635 11.4993 18.4078 11.5378 18.8326 11.6161C19.1411 11.673 19.447 11.7504 19.7502 11.8482M17.5002 11.75C17.9496 11.7493 18.3786 11.7867 18.7872 11.862C19.111 11.9217 19.432 12.0048 19.7502 12.1113V11.8482M19.7502 11.8482V10.7966M19.7502 11.8482C19.8338 11.8751 19.9171 11.9036 20.0002 11.9336L19.7502 10.7966M20.7502 16.5172C20.2519 16.3581 19.7562 16.2357 19.2632 16.15C18.6879 16.05 18.1002 16 17.5002 16C16.7162 15.9993 15.9536 16.0867 15.2122 16.262C14.5551 16.4174 13.9011 16.6415 13.2502 16.9341M20.7502 16.5172L13.2502 16.9341M20.7502 16.5172V16.6H21.0002L21.0814 16.3635C21.0543 16.3543 21.0273 16.3451 21.0002 16.336M20.7502 16.5172L21.0002 16.336M13.2502 16.9341C13.1669 16.9716 13.0835 17.0103 13.0002 17.05M13.2502 16.9341V17.05H13.0002M13.0002 17.05V16.7736C12.9643 16.7903 12.9284 16.8073 12.8926 16.8244L13.0002 17.05ZM21.0002 16.336V6.7C20.4502 6.46667 19.8792 6.29167 19.2872 6.175C18.6952 6.05833 18.0996 6 17.5002 6C16.7169 6 15.9419 6.1 15.1752 6.3C14.4086 6.5 13.6836 6.8 13.0002 7.2L21.0002 16.336ZM10.8926 17.2757L11.2502 17.4462V17.05V7.2V7.05666L11.1265 6.98425C10.4234 6.57267 9.67716 6.26387 8.88835 6.0581C8.10132 5.85278 7.30512 5.75 6.50024 5.75C5.88392 5.75 5.27174 5.80993 4.66391 5.92972C4.05515 6.04969 3.46791 6.22974 2.90251 6.4699L2.75024 6.53457V6.7V16.6V16.95L3.08133 16.8365C3.65287 16.6405 4.21942 16.4939 4.78106 16.3963C5.34188 16.2988 5.91488 16.25 6.50024 16.25C7.26475 16.25 8.0081 16.3355 8.73075 16.5063C9.4544 16.6773 10.175 16.9335 10.8926 17.2757ZM12.7502 17.05V17.4463L13.1079 17.2756C13.8263 16.9328 14.5469 16.6763 15.2698 16.5053C15.9916 16.3346 16.7349 16.2494 17.5 16.25H17.5002C18.0863 16.25 18.6596 16.2988 19.2204 16.3963C19.7821 16.4939 20.3482 16.6405 20.9191 16.8365L21.2502 16.9501V16.6V6.7V6.53449L21.0979 6.46985C20.5319 6.22972 19.9443 6.04968 19.3356 5.92972C18.7278 5.80994 18.1159 5.75 17.5002 5.75C16.6954 5.75 15.8992 5.85278 15.1121 6.0581C14.3233 6.26387 13.5771 6.57267 12.874 6.98425L12.7502 7.05666V7.2V17.05ZM1.65401 5.42745L1.65415 5.42777L1.66589 5.42165C2.41457 5.03103 3.19534 4.73828 4.00859 4.5431C4.8226 4.34773 5.65301 4.25 6.50024 4.25C7.44508 4.25 8.36915 4.37214 9.27304 4.61635C10.1762 4.86035 11.0428 5.22647 11.8734 5.71544L12.0002 5.79007L12.127 5.71548C12.9583 5.22649 13.8253 4.86035 14.7285 4.61635C15.6324 4.37214 16.5561 4.25 17.5002 4.25C18.3475 4.25 19.1779 4.34773 19.9919 4.5431C20.8051 4.73828 21.5859 5.03103 22.3346 5.42165L22.3344 5.42197L22.3468 5.42759C22.4842 5.49004 22.5799 5.57905 22.6444 5.69581L22.8632 5.575L22.6444 5.69582C22.7166 5.82671 22.7508 5.95999 22.7502 6.09909V6.1V18.15C22.7502 18.4471 22.6324 18.658 22.3821 18.8121C22.1363 18.9636 21.8931 18.9728 21.6175 18.8292C20.9845 18.4872 20.3215 18.222 19.6288 18.0338C18.9327 17.8446 18.223 17.75 17.5002 17.75C16.4704 17.75 15.474 17.9304 14.5125 18.2909C13.6144 18.6277 12.7768 19.0922 12.0002 19.6835C11.2237 19.0922 10.3861 18.6277 9.48803 18.2909C8.52653 17.9304 7.53012 17.75 6.50024 17.75C5.77813 17.75 5.06844 17.8446 4.37175 18.0337C3.67837 18.222 3.01528 18.4872 2.38282 18.8293C2.10807 18.9727 1.86525 18.9636 1.61937 18.8121C1.36898 18.6579 1.25081 18.4469 1.25024 18.1498V6.1C1.25024 5.96058 1.28472 5.82696 1.35711 5.69582C1.42171 5.57879 1.51731 5.48981 1.65401 5.42745Z" fill="#989DA6" stroke="#313B47" stroke-width="0.5"/>
</svg>
