<svg width="24" height="24" viewBox="0 0 24 24" fill="none" xmlns="http://www.w3.org/2000/svg">
<path d="M23.0188 6.53541C22.9763 6.43257 22.9043 6.34463 22.8119 6.28272C22.7194 6.22081 22.6107 6.18771 22.4994 6.1876H19.5369C19.1621 5.51161 18.6146 4.94717 17.9504 4.55189C17.2861 4.15661 16.5289 3.94463 15.756 3.9376C15.1946 3.93041 14.6374 4.03551 14.1173 4.24674C13.5971 4.45797 13.1244 4.77106 12.7269 5.1676C12.3173 5.56949 11.9922 6.04922 11.7707 6.57858C11.5491 7.10795 11.4357 7.67626 11.4369 8.2501V9.06198C7.49943 8.12448 4.25568 4.88823 4.21818 4.85448C4.14263 4.77945 4.04734 4.72741 3.94339 4.7044C3.83943 4.68139 3.73108 4.68836 3.63092 4.72449C3.53077 4.76062 3.44293 4.82444 3.37761 4.90852C3.31229 4.9926 3.27218 5.0935 3.26193 5.19948C2.86349 9.62635 4.14506 12.5823 5.29068 14.2829C5.88292 15.1738 6.61296 15.9649 7.45349 16.6267C6.00131 18.4079 3.57787 19.3351 3.55162 19.3454C3.47156 19.375 3.39929 19.4225 3.34029 19.4842C3.28129 19.5459 3.23711 19.6202 3.21109 19.7015C3.18507 19.7828 3.1779 19.869 3.19012 19.9535C3.20234 20.038 3.23363 20.1186 3.28162 20.1892C3.37443 20.3279 4.29131 21.5626 7.49943 21.5626C14.0507 21.5626 19.521 16.5001 20.0451 9.99948L22.8969 7.14854C22.9756 7.06986 23.0292 6.9696 23.0509 6.86047C23.0726 6.75133 23.0614 6.63821 23.0188 6.53541ZM19.1019 9.3526C19.005 9.44925 18.9467 9.57791 18.9379 9.71448C18.5554 15.7276 13.5304 20.4376 7.49943 20.4376C6.18693 20.4376 5.36568 20.2117 4.86881 19.9876C5.92818 19.4551 7.65506 18.4051 8.71724 16.8123C8.75961 16.7486 8.78852 16.6769 8.80222 16.6016C8.81593 16.5263 8.81412 16.449 8.79693 16.3745C8.77956 16.2994 8.74697 16.2288 8.70117 16.1668C8.65537 16.1049 8.59734 16.0531 8.53068 16.0145C8.51849 16.007 7.29974 15.2776 6.18693 13.6032C4.87443 11.6251 4.24724 9.22791 4.31193 6.4576C5.70693 7.63885 8.58412 9.74729 11.9057 10.3014C11.9864 10.315 12.0691 10.3109 12.148 10.2892C12.2269 10.2676 12.3002 10.2291 12.3627 10.1762C12.4251 10.1234 12.4754 10.0575 12.5098 9.98329C12.5442 9.90905 12.562 9.82819 12.5619 9.74635V8.2501C12.5611 7.82528 12.6451 7.40458 12.8092 7.01271C12.9733 6.62084 13.214 6.26573 13.5172 5.96823C13.8092 5.67669 14.1565 5.4464 14.5387 5.29089C14.9209 5.13537 15.3303 5.05776 15.7429 5.0626C17.0019 5.07854 18.1804 5.84729 18.6716 6.9751C18.7154 7.07543 18.7875 7.1608 18.8791 7.22075C18.9707 7.2807 19.0778 7.31262 19.1872 7.3126H21.141L19.1019 9.3526Z" fill="#989DA6"/>
</svg>
