<svg width="24" height="24" viewBox="0 0 24 24" fill="none" xmlns="http://www.w3.org/2000/svg">
<path d="M7.99975 20L11.9998 11M10.6998 14C11.1368 15.263 12.1298 16 13.2498 16C15.3208 16 16.9998 14.446 16.9998 12C17.0006 11.2698 16.8415 10.5483 16.5337 9.88621C16.2259 9.2241 15.7768 8.63744 15.2179 8.16747C14.6591 7.69751 14.0041 7.35564 13.299 7.1659C12.5939 6.97616 11.8558 6.94316 11.1366 7.0692C10.4174 7.19525 9.73453 7.47729 9.13599 7.89551C8.53744 8.31372 8.03776 8.85795 7.67206 9.48994C7.30635 10.1219 7.08351 10.8264 7.01919 11.5537C6.95487 12.281 7.05064 13.0136 7.29975 13.7" stroke="#989DA6" stroke-linecap="round" stroke-linejoin="round"/>
<path d="M2.99976 12C2.99976 13.1819 3.23255 14.3522 3.68484 15.4442C4.13713 16.5361 4.80007 17.5282 5.6358 18.364C6.47152 19.1997 7.46368 19.8626 8.55561 20.3149C9.64754 20.7672 10.8179 21 11.9998 21C13.1817 21 14.352 20.7672 15.4439 20.3149C16.5358 19.8626 17.528 19.1997 18.3637 18.364C19.1994 17.5282 19.8624 16.5361 20.3147 15.4442C20.767 14.3522 20.9998 13.1819 20.9998 12C20.9998 10.8181 20.767 9.64778 20.3147 8.55585C19.8624 7.46392 19.1994 6.47177 18.3637 5.63604C17.528 4.80031 16.5358 4.13738 15.4439 3.68508C14.352 3.23279 13.1817 3 11.9998 3C10.8179 3 9.64754 3.23279 8.55561 3.68508C7.46368 4.13738 6.47152 4.80031 5.6358 5.63604C4.80007 6.47177 4.13713 7.46392 3.68484 8.55585C3.23255 9.64778 2.99976 10.8181 2.99976 12Z" stroke="#989DA6" stroke-linecap="round" stroke-linejoin="round"/>
</svg>
