<svg width="24" height="24" viewBox="0 0 24 24" fill="none" xmlns="http://www.w3.org/2000/svg">
<path d="M19.9998 6.25C20.5143 6.25 20.9172 6.42405 21.2374 6.76101C21.5797 7.13079 21.7498 7.5216 21.7498 8V19C21.7498 19.4784 21.5798 19.8692 21.2374 20.2389C20.9173 20.5759 20.5143 20.75 19.9998 20.75H3.99976C3.48521 20.75 3.08228 20.5759 2.76209 20.239C2.41976 19.8692 2.24976 19.4784 2.24976 19V8C2.24976 7.52161 2.41977 7.1308 2.76211 6.76103C3.08229 6.42405 3.48522 6.25 3.99976 6.25H7.99976H8.24976V6V4C8.24976 3.48455 8.42454 3.08007 8.75416 2.75912L8.75422 2.75918L8.75887 2.7544C9.07982 2.42478 9.48431 2.25 9.99976 2.25H13.9998C14.5152 2.25 14.9197 2.42478 15.2406 2.7544L15.2406 2.75447L15.2454 2.75912C15.575 3.08007 15.7498 3.48455 15.7498 4V6V6.25H15.9998H19.9998ZM3.99976 7.75H3.74976V8V19V19.25H3.99976H19.9998H20.2498V19V8V7.75H19.9998H3.99976ZM13.9998 6.25H14.2498V6V4V3.75H13.9998H9.99976H9.74976V4V6V6.25H9.99976H13.9998Z" fill="#989DA6" stroke="#313B47" stroke-width="0.5"/>
</svg>
