<svg width="24" height="24" viewBox="0 0 24 24" fill="none" xmlns="http://www.w3.org/2000/svg">
<g clip-path="url(#clip0_125_733)">
<path d="M13.6684 0.632202V3.00136H23.2541C23.6661 3.00136 24 3.3353 24 3.74728V20.0539C24 20.4659 23.6661 20.7998 23.2541 20.7998H13.6684V23.3679L0 20.9489V3.04692L13.6684 0.632249V0.632202ZM9.1328 10.5798C9.17878 9.85144 9.00586 9.11311 8.51592 8.64089C7.93289 8.07881 7.5442 7.98037 5.87738 8.06667L4.52334 8.1368V15.7847H5.90006V13.1297C8.43999 13.3465 9.02874 11.8814 9.1328 10.5798ZM7.55049 10.5798C7.47853 11.8225 6.90295 11.7702 5.90002 11.7531V9.44222C7.02722 9.40247 7.51378 9.55688 7.55049 10.5798ZM22.1449 10.5731L19.5616 13.2675L16.8611 10.5731H18.8801V7.03308H13.6684V13.9538L15.7437 11.9116L18.831 15.0011C18.831 15.0011 15.8094 17.9481 15.7377 17.9481C15.6661 17.9481 13.6684 16.043 13.6684 16.043V20.0131H23.2068V3.78802H13.6684V5.75466H20.1585V10.573L22.1449 10.5731Z" fill="#989DA6"/>
</g>
<defs>
<clipPath id="clip0_125_733">
<rect width="24" height="24" fill="white"/>
</clipPath>
</defs>
</svg>
