<svg width="24" height="24" viewBox="0 0 24 24" fill="none" xmlns="http://www.w3.org/2000/svg">
<path d="M17.3233 16.5671L17.3998 16.5241V16.4363V13.4045L18.5998 12.7378V17.2258L11.9998 20.9383L5.39976 17.2258V12.7378L6.59976 13.4045V16.4363V16.5241L6.67622 16.5671L11.9262 19.5202L11.9998 19.5616L12.0733 19.5202L17.3233 16.5671Z" fill="#989DA6" stroke="#313B47" stroke-width="0.3"/>
<path d="M22.3498 7.6909V13.7251H21.1498V9.73309V9.47816L20.9269 9.60196L11.9998 14.5613L1.64976 8.81148V7.6909L11.9998 2.32424L22.3498 7.6909ZM11.9269 13.1484L11.9998 13.1889L12.0726 13.1484L18.0726 9.8149L19.5726 8.9816L19.4998 8.85048L19.5726 8.9816L20.6122 8.40401L20.8565 8.26832L20.6084 8.13972L12.0688 3.71177L11.9998 3.67596L11.9307 3.71177L3.39107 8.13972L3.14305 8.26832L3.38727 8.40401L4.42691 8.9816L4.42691 8.9816L5.92691 9.8149L5.92691 9.8149L11.9269 13.1484Z" fill="#989DA6" stroke="#313B47" stroke-width="0.3"/>
</svg>
