<svg width="24" height="24" viewBox="0 0 24 24" fill="none" xmlns="http://www.w3.org/2000/svg">
<path d="M11.9995 2.00012C6.47651 2.00012 1.99951 6.47712 1.99951 12.0001C1.99951 17.5231 6.47651 22.0001 11.9995 22.0001C17.5225 22.0001 21.9995 17.5231 21.9995 12.0001C21.9995 6.47712 17.5225 2.00012 11.9995 2.00012Z" stroke="#989DA6" stroke-width="1.1" stroke-linecap="round" stroke-linejoin="round"/>
<path d="M4.27051 18.346C4.27051 18.346 6.49951 15.5 11.9995 15.5C17.4995 15.5 19.7295 18.346 19.7295 18.346M11.9995 12C12.7952 12 13.5582 11.6839 14.1208 11.1213C14.6834 10.5587 14.9995 9.79565 14.9995 9C14.9995 8.20435 14.6834 7.44129 14.1208 6.87868C13.5582 6.31607 12.7952 6 11.9995 6C11.2039 6 10.4408 6.31607 9.87819 6.87868C9.31558 7.44129 8.99951 8.20435 8.99951 9C8.99951 9.79565 9.31558 10.5587 9.87819 11.1213C10.4408 11.6839 11.2039 12 11.9995 12Z" stroke="#989DA6" stroke-width="1.1" stroke-linecap="round" stroke-linejoin="round"/>
</svg>
