<svg width="24" height="24" viewBox="0 0 24 24" fill="none" xmlns="http://www.w3.org/2000/svg">
<path d="M11.9994 22C10.3294 22 8.83945 20.5 7.89945 17.93C7.82944 17.73 7.92944 17.5 8.13944 17.44C8.33944 17.36 8.55944 17.47 8.62944 17.67C9.43945 19.9 10.6994 21.23 11.9994 21.23C12.9394 21.23 13.8694 20.55 14.6194 19.31C14.6738 19.2253 14.7591 19.1651 14.8572 19.1424C14.9553 19.1196 15.0583 19.1361 15.1444 19.1883C15.2305 19.2405 15.2928 19.3242 15.3181 19.4217C15.3433 19.5191 15.3294 19.6226 15.2794 19.71C14.3794 21.19 13.2194 22 11.9994 22ZM15.9094 17.72C15.872 17.7191 15.8348 17.7124 15.7994 17.7C15.5894 17.63 15.4994 17.42 15.5394 17.21C15.9994 15.81 16.2194 14.18 16.2194 12.5C16.2194 8.65 14.9694 5.24 13.1894 4.14C12.9394 4.5 12.4994 4.78 11.9994 4.78C11.2394 4.78 10.6094 4.16 10.6094 3.39C10.6094 2.62 11.2394 2 11.9994 2C12.7694 2 13.3994 2.61 13.4094 3.37C15.5294 4.5 16.9994 8.21 16.9994 12.5C16.9994 14.25 16.7494 15.96 16.2794 17.45C16.2294 17.61 16.0794 17.72 15.9094 17.72ZM11.9994 2.77C11.6594 2.77 11.3794 3.05 11.3794 3.39C11.3794 3.73 11.6694 4 11.9994 4C12.3494 4 12.6394 3.73 12.6394 3.39C12.6394 3.05 12.3494 2.77 11.9994 2.77ZM4.07944 18.54C3.30944 18.54 2.67944 17.91 2.67944 17.15C2.67944 16.66 2.93944 16.22 3.32944 15.97C3.18944 13.56 5.67944 10.41 9.49944 8.22C11.0894 7.32 12.7494 6.67 14.3194 6.34C14.4994 6.29 14.7294 6.42 14.7694 6.63C14.8194 6.84 14.6894 7.05 14.4994 7.09C12.9994 7.41 11.4094 8.03 9.89944 8.89C6.45944 10.86 4.09944 13.68 4.09944 15.76C4.85944 15.77 5.49944 16.39 5.49944 17.15C5.49944 17.92 4.84944 18.54 4.07944 18.54ZM4.07944 16.53C3.73944 16.53 3.45944 16.81 3.45944 17.15C3.45944 17.5 3.73944 17.77 4.07944 17.77C4.41944 17.77 4.70944 17.5 4.70944 17.15C4.70944 16.81 4.41944 16.53 4.07944 16.53ZM18.4994 13.44C18.4294 13.44 18.3394 13.41 18.2694 13.35C18.1919 13.2819 18.1443 13.1861 18.1368 13.0832C18.1293 12.9803 18.1626 12.8786 18.2294 12.8C19.7694 11 20.2994 9.26 19.6394 8.14C19.1694 7.33 18.0994 6.88 16.6294 6.86C16.4094 6.86 16.2394 6.68 16.2494 6.47C16.2494 6.26 16.4294 6.1 16.6394 6.09C18.3894 6.11 19.6994 6.7 20.3094 7.75C21.1494 9.19 20.5994 11.21 18.8194 13.3C18.7394 13.39 18.6294 13.44 18.4994 13.44ZM16.4994 18.9C14.4994 18.9 11.9394 18.16 9.49944 16.77C7.94944 15.88 6.56944 14.79 5.49944 13.63C5.42956 13.5555 5.39067 13.4572 5.39067 13.355C5.39067 13.2528 5.42956 13.1545 5.49944 13.08C5.67944 12.94 5.91944 12.95 6.06944 13.11C7.07944 14.21 8.39944 15.25 9.88945 16.1C13.1994 18 16.7694 18.63 18.6494 17.72C18.5694 17.55 18.4994 17.35 18.4994 17.15C18.4994 16.38 19.1494 15.76 19.9194 15.76C20.6894 15.76 21.3194 16.38 21.3194 17.15C21.3186 17.4002 21.2505 17.6456 21.1223 17.8604C20.9941 18.0753 20.8105 18.2517 20.5907 18.3713C20.371 18.4909 20.1231 18.5493 19.8731 18.5402C19.623 18.5312 19.38 18.4551 19.1694 18.32C18.4694 18.71 17.5594 18.9 16.4994 18.9ZM19.4994 17.63C19.6294 17.71 19.7694 17.77 19.9194 17.77C20.0839 17.77 20.2416 17.7047 20.3579 17.5884C20.4741 17.4721 20.5394 17.3144 20.5394 17.15C20.5394 16.9856 20.4741 16.8279 20.3579 16.7116C20.2416 16.5953 20.0839 16.53 19.9194 16.53C19.5694 16.53 19.2994 16.81 19.2994 17.15C19.2994 17.29 19.3494 17.42 19.4294 17.53C19.4694 17.55 19.4994 17.59 19.4994 17.63ZM4.45944 12C4.32944 12 4.19944 11.92 4.12944 11.8C3.22944 10.25 3.07944 8.81 3.69944 7.74C4.53944 6.3 6.57944 5.76 9.30944 6.25C9.49944 6.29 9.65944 6.5 9.61944 6.7C9.58944 6.91 9.38944 7.05 9.17944 7C6.81944 6.59 4.99944 7 4.36944 8.13C3.88944 8.95 4.03944 10.11 4.79944 11.41C4.89944 11.6 4.83944 11.83 4.64944 11.94C4.58944 11.97 4.52944 12 4.45944 12ZM12.2094 13.4C11.9708 13.453 11.7208 13.4091 11.5145 13.2778C11.3082 13.1465 11.1625 12.9387 11.1094 12.7C11.0564 12.4613 11.1004 12.2113 11.2316 12.005C11.3629 11.7987 11.5708 11.653 11.8094 11.6C12.3094 11.5 12.8094 11.81 12.9094 12.31C12.9994 12.8 12.6994 13.29 12.2094 13.4Z" fill="#989DA6"/>
</svg>
