<svg width="24" height="24" viewBox="0 0 24 24" fill="none" xmlns="http://www.w3.org/2000/svg">
<path d="M8.24968 21.75H15.7497M11.9997 21.75V15.75M17.9997 10.5C17.9997 8.12625 17.9959 4.18922 17.9941 3C17.9941 2.80109 17.915 2.61032 17.7744 2.46967C17.6337 2.32902 17.443 2.25 17.2441 2.25L6.7539 2.26219C6.55539 2.26219 6.36498 2.34088 6.22439 2.48103C6.08381 2.62117 6.00452 2.81134 6.0039 3.00984C6.0039 4.44328 5.9978 9.06469 5.9978 10.5C5.9978 13.5131 9.88843 15.75 11.9978 15.75C14.1072 15.75 17.9997 13.5131 17.9997 10.5Z" stroke="#989DA6" stroke-width="1.2" stroke-linecap="round" stroke-linejoin="round"/>
<path d="M5.99976 4.5H2.24976V5.25C2.24976 7.83844 3.82241 10.5 5.99976 10.5M17.9998 4.5H21.7498V5.25C21.7498 7.83844 20.1771 10.5 17.9998 10.5" stroke="#989DA6" stroke-width="1.2" stroke-linecap="round" stroke-linejoin="round"/>
</svg>
