<svg width="24" height="24" viewBox="0 0 24 24" fill="none" xmlns="http://www.w3.org/2000/svg">
<path d="M11.9361 14.1358L11.9993 14.1654L12.0626 14.1362C13.4713 13.486 15.3196 13.15 16.4998 13.15C17.5662 13.15 19.1722 13.4165 20.5078 13.9505C21.1755 14.2175 21.7662 14.5476 22.1875 14.9369C22.6077 15.3252 22.8498 15.7624 22.8498 16.25V18.85H1.14976V16.25C1.14976 15.7624 1.39177 15.3252 1.81202 14.9369C2.23335 14.5476 2.82401 14.2175 3.49169 13.9505C4.82729 13.4165 6.43335 13.15 7.49976 13.15C8.68056 13.15 10.5284 13.4763 11.9361 14.1358ZM12.4998 17.65H12.6498V17.5V16.25C12.6498 16.1268 12.5797 16.0138 12.4975 15.9205C12.4114 15.8229 12.2908 15.7233 12.1461 15.6248C11.8558 15.4271 11.4487 15.2205 10.9694 15.0328C10.0109 14.6575 8.74222 14.35 7.49976 14.35C6.25729 14.35 4.98862 14.6575 4.03007 15.0328C3.55084 15.2205 3.14369 15.4271 2.85346 15.6248C2.70875 15.7233 2.58815 15.8229 2.50203 15.9205C2.41979 16.0138 2.34976 16.1268 2.34976 16.25V17.5V17.65H2.49976H12.4998ZM21.4998 17.65H21.6498V17.5V16.25C21.6498 16.1268 21.5797 16.0138 21.4975 15.9205C21.4114 15.8229 21.2908 15.7233 21.1461 15.6248C20.8558 15.4271 20.4487 15.2205 19.9694 15.0328C19.0109 14.6575 17.7422 14.35 16.4998 14.35C15.4197 14.35 14.3231 14.584 13.4314 14.888L13.2176 14.9609L13.3676 15.1297C13.6716 15.4716 13.8498 15.8376 13.8498 16.25V17.5V17.65H13.9998H21.4998ZM10.8498 8.5C10.8498 10.3472 9.34691 11.85 7.49976 11.85C5.6526 11.85 4.14976 10.3472 4.14976 8.5C4.14976 6.65284 5.6526 5.15 7.49976 5.15C9.34691 5.15 10.8498 6.65284 10.8498 8.5ZM9.64976 8.5C9.64976 7.31716 8.6826 6.35 7.49976 6.35C6.31691 6.35 5.34976 7.31716 5.34976 8.5C5.34976 9.68284 6.31691 10.65 7.49976 10.65C8.6826 10.65 9.64976 9.68284 9.64976 8.5ZM19.8498 8.5C19.8498 10.3472 18.3469 11.85 16.4998 11.85C14.6526 11.85 13.1498 10.3472 13.1498 8.5C13.1498 6.65284 14.6526 5.15 16.4998 5.15C18.3469 5.15 19.8498 6.65284 19.8498 8.5ZM18.6498 8.5C18.6498 7.31716 17.6826 6.35 16.4998 6.35C15.3169 6.35 14.3498 7.31716 14.3498 8.5C14.3498 9.68284 15.3169 10.65 16.4998 10.65C17.6826 10.65 18.6498 9.68284 18.6498 8.5Z" fill="#989DA6" stroke="#313B47" stroke-width="0.3"/>
</svg>
