<svg width="48" height="56" viewBox="0 0 48 56" fill="none" xmlns="http://www.w3.org/2000/svg">
<path d="M26 18H37L26 7V18ZM12 4H28L40 16V40C40 41.0609 39.5786 42.0783 38.8284 42.8284C38.0783 43.5786 37.0609 44 36 44H12C10.9391 44 9.92172 43.5786 9.17157 42.8284C8.42143 42.0783 8 41.0609 8 40V8C8 5.78 9.78 4 12 4ZM28 40V38C28 35.34 22.66 34 20 34C17.34 34 12 35.34 12 38V40H28ZM20 24C18.9391 24 17.9217 24.4214 17.1716 25.1716C16.4214 25.9217 16 26.9391 16 28C16 29.0609 16.4214 30.0783 17.1716 30.8284C17.9217 31.5786 18.9391 32 20 32C21.0609 32 22.0783 31.5786 22.8284 30.8284C23.5786 30.0783 24 29.0609 24 28C24 26.9391 23.5786 25.9217 22.8284 25.1716C22.0783 24.4214 21.0609 24 20 24Z" fill="white"/>
<path d="M0 56.5H1V55.5H0V56.5ZM3 56.5H5V55.5H3V56.5ZM7 56.5H9V55.5H7V56.5ZM11 56.5H13V55.5H11V56.5ZM15 56.5H17V55.5H15V56.5ZM19 56.5H21V55.5H19V56.5ZM23 56.5H25V55.5H23V56.5ZM27 56.5H29V55.5H27V56.5ZM31 56.5H33V55.5H31V56.5ZM35 56.5H37V55.5H35V56.5ZM39 56.5H41V55.5H39V56.5ZM43 56.5H45V55.5H43V56.5ZM47 56.5H48V55.5H47V56.5ZM0 57H1V55H0V57ZM3 57H5V55H3V57ZM7 57H9V55H7V57ZM11 57H13V55H11V57ZM15 57H17V55H15V57ZM19 57H21V55H19V57ZM23 57H25V55H23V57ZM27 57H29V55H27V57ZM31 57H33V55H31V57ZM35 57H37V55H35V57ZM39 57H41V55H39V57ZM43 57H45V55H43V57ZM47 57H48V55H47V57Z" fill="white" mask="url(#path-1-inside-1_85_922)"/>
</svg>
